<?xml version="1.0" standalone="no"?>
<!DOCTYPE svg PUBLIC "-//W3C//DTD SVG 20010904//EN"
 "http://www.w3.org/TR/2001/REC-SVG-20010904/DTD/svg10.dtd">
<svg version="1.0" xmlns="http://www.w3.org/2000/svg"
 width="500.000000pt" height="500.000000pt" viewBox="0 0 500.000000 500.000000"
 preserveAspectRatio="xMidYMid meet">

<g transform="translate(0.000000,500.000000) scale(0.100000,-0.100000)"
fill="#000000" stroke="none">
<path d="M2528 3670 c3 -38 -1 -66 -8 -75 -11 -13 -5 -15 39 -15 28 0 51 4 51
8 0 5 -13 7 -30 4 -28 -4 -30 -2 -30 26 0 24 5 32 23 35 l22 4 -23 2 c-19 1
-23 6 -20 29 3 23 7 27 33 24 23 -2 26 0 15 8 -8 5 -28 10 -45 10 l-30 0 3
-60z"/>
<path d="M2233 3698 c-24 -5 -43 -14 -43 -19 0 -6 7 -6 19 1 11 5 22 10 24 10
9 0 29 -100 25 -118 -4 -15 0 -17 26 -13 17 3 24 6 15 8 -10 3 -20 23 -28 58
-14 60 -8 79 20 72 11 -3 19 -1 19 4 0 11 -20 10 -77 -3z"/>
<path d="M2723 3653 c-6 -32 -12 -64 -14 -72 -2 -7 1 -15 6 -17 6 -2 11 11 12
30 2 19 7 44 11 57 8 20 12 15 33 -44 13 -37 29 -67 35 -67 7 0 18 24 24 53 7
28 16 59 21 68 6 12 4 18 -9 21 -14 4 -17 -3 -18 -39 -2 -67 -19 -74 -39 -16
-34 98 -46 103 -62 26z"/>
<path d="M2088 3600 c14 -28 23 -53 20 -55 -3 -3 -29 12 -59 33 -71 51 -84 46
-53 -21 13 -29 24 -59 24 -69 0 -11 6 -15 20 -11 17 5 18 7 6 17 -14 11 -49
86 -40 86 2 0 29 -16 59 -36 29 -20 58 -33 63 -30 12 7 -39 136 -54 136 -6 0
0 -22 14 -50z"/>
<path d="M2968 3630 c28 -12 28 -23 -2 -87 -20 -42 -22 -52 -10 -57 8 -3 14 0
14 7 0 6 10 35 22 64 21 52 22 53 45 38 13 -9 23 -11 23 -5 0 11 -83 50 -103
49 -7 0 -2 -4 11 -9z"/>
<path d="M1806 3509 c-52 -41 -23 -129 44 -129 79 0 95 100 23 138 -29 16 -36
15 -67 -9z m87 -37 c18 -30 18 -34 3 -57 -9 -14 -26 -25 -37 -25 -24 0 -69 42
-69 65 0 63 70 75 103 17z"/>
<path d="M3250 3471 c0 -4 -20 -29 -44 -55 l-43 -47 31 -23 c45 -33 64 -38 95
-21 52 26 55 77 8 123 -33 32 -47 39 -47 23z m51 -45 c26 -56 -23 -112 -76
-88 -33 15 -32 30 6 75 35 43 55 47 70 13z"/>
<path d="M1619 3354 l-26 -25 51 -49 c49 -47 88 -60 47 -16 -27 29 -18 37 34
29 26 -3 45 -1 49 6 5 7 -6 11 -33 11 -36 0 -41 3 -41 23 0 50 -41 61 -81 21z
m65 -11 c4 -9 0 -23 -9 -32 -14 -14 -17 -13 -36 6 -12 11 -18 26 -15 32 11 17
53 13 60 -6z"/>
<path d="M3407 3284 c-15 -18 -41 -38 -56 -45 l-29 -13 31 -37 c18 -21 35 -35
40 -32 4 2 -4 14 -18 25 l-26 20 22 24 c20 22 24 22 39 9 9 -8 21 -15 26 -15
5 0 1 5 -8 11 -23 13 -23 31 2 46 16 11 21 9 34 -9 8 -12 12 -26 9 -31 -3 -6
-1 -7 5 -3 17 10 15 17 -16 52 l-27 31 -28 -33z"/>
<path d="M1496 3210 c-14 -22 -21 -40 -15 -40 6 0 34 -16 61 -35 27 -20 54
-33 59 -29 6 3 -3 14 -20 25 -34 20 -39 36 -16 45 8 4 12 10 9 16 -3 5 -13 0
-20 -11 -13 -17 -18 -19 -34 -8 -25 15 -25 22 0 47 10 10 15 22 11 24 -5 3
-20 -12 -35 -34z"/>
<path d="M3509 3105 c-43 -54 -54 -80 -34 -80 57 3 145 19 145 27 0 6 -11 7
-25 4 -14 -4 -46 -9 -72 -13 l-47 -6 38 46 c20 25 43 48 49 50 9 3 9 8 1 16
-8 9 -22 -3 -55 -44z"/>
<path d="M1448 3032 c-119 -179 -191 -468 -174 -691 45 -560 442 -1000 996
-1102 87 -16 295 -13 401 5 280 50 568 225 731 444 57 77 41 86 -19 11 -170
-214 -394 -358 -652 -421 -122 -29 -345 -36 -465 -14 -257 49 -449 148 -627
325 -301 299 -414 720 -304 1131 26 93 95 254 134 309 23 32 26 41 12 41 -4 0
-20 -17 -33 -38z"/>
<path d="M3660 2947 c0 -15 -89 -54 -116 -51 -8 1 -7 -12 3 -42 10 -28 21 -44
31 -44 11 0 13 3 6 8 -6 4 -16 17 -23 29 -9 19 -8 24 8 33 29 15 41 12 52 -12
9 -21 9 -21 4 4 -4 21 0 28 15 33 26 8 40 -1 40 -26 0 -10 4 -19 9 -19 6 0 3
21 -6 48 -18 54 -23 62 -23 39z"/>
<path d="M3680 2734 c-25 -7 -56 -13 -69 -13 -21 -1 -23 -4 -17 -32 3 -17 6
-35 6 -40 0 -5 4 -9 10 -9 6 0 6 9 0 26 -6 14 -10 27 -10 29 0 7 112 27 124
22 10 -4 12 1 9 14 -3 10 -6 18 -7 18 0 -1 -21 -7 -46 -15z"/>
<path d="M2160 2714 c-19 -8 -45 -25 -57 -36 l-23 -21 0 25 c0 13 -2 27 -5 30
-3 3 -44 -3 -91 -12 -84 -17 -117 -30 -77 -30 12 0 30 -8 42 -17 21 -17 22
-24 19 -212 l-3 -194 -35 -13 c-31 -11 -21 -12 100 -12 132 0 134 0 93 15
l-43 15 0 187 c0 153 3 191 16 209 39 56 134 70 175 26 23 -25 24 -31 27 -201
2 -96 1 -186 -3 -200 -3 -15 -18 -30 -38 -38 -30 -13 -23 -14 93 -15 l125 0
-35 18 -35 17 -5 185 c-4 161 -8 189 -25 219 -39 65 -135 90 -215 55z"/>
<path d="M2780 2714 c-19 -8 -45 -27 -57 -42 l-23 -27 0 31 c0 17 -2 33 -5 36
-3 3 -44 -3 -91 -12 -83 -17 -117 -30 -78 -30 11 0 30 -7 42 -16 22 -15 22
-16 22 -323 0 -319 -2 -331 -42 -331 -10 0 -18 -4 -18 -10 0 -6 47 -10 121
-10 77 0 118 4 114 10 -3 6 -14 10 -24 10 -35 0 -41 21 -41 143 l0 118 32 -22
c38 -27 123 -36 184 -20 106 29 175 124 176 244 0 91 -19 144 -72 197 -66 67
-160 88 -240 54z m97 -15 c80 -30 117 -112 111 -247 -5 -148 -57 -212 -170
-212 -52 0 -63 3 -89 29 l-29 29 0 155 c0 144 2 156 23 188 23 34 78 69 109
69 9 0 29 -5 45 -11z"/>
<path d="M3630 2550 c-26 -26 -25 -60 1 -94 41 -52 129 -21 129 44 0 41 -32
70 -75 70 -22 0 -43 -8 -55 -20z m104 -16 c51 -50 -42 -116 -96 -67 -22 20
-23 41 -1 65 20 22 76 24 97 2z"/>
<path d="M3600 2331 c0 -17 6 -21 29 -21 16 0 32 -6 34 -12 3 -7 6 -8 6 -2 1
6 14 9 32 6 24 -4 29 -9 27 -26 -4 -27 -38 -33 -55 -10 -12 17 -13 17 -13 -4
0 -15 8 -24 26 -28 31 -8 49 9 57 52 l6 31 -61 7 c-34 3 -67 11 -74 17 -11 9
-14 7 -14 -10z"/>
<path d="M3206 2304 c-9 -8 -16 -28 -16 -44 0 -54 72 -68 99 -19 13 24 13 29
-2 53 -20 30 -57 35 -81 10z"/>
<path d="M3558 2132 c-9 -29 -12 -54 -7 -58 5 -3 9 6 9 20 0 30 13 40 46 32
20 -5 23 -11 19 -34 -5 -25 -5 -25 4 -4 11 23 27 28 50 13 12 -8 12 -13 -3
-36 -12 -18 -13 -26 -5 -23 7 2 18 20 24 39 l13 35 -64 18 c-39 11 -64 24 -66
34 -2 9 -10 -8 -20 -36z"/>
<path d="M3496 1985 c-3 -8 5 -16 20 -19 37 -10 28 -31 -18 -42 -23 -5 -44
-16 -46 -24 -4 -12 -2 -13 9 -2 22 20 63 15 74 -10 16 -37 54 -30 81 14 13 21
18 35 11 32 -7 -2 -38 11 -69 30 -41 24 -58 30 -62 21z m89 -57 c29 -13 31
-21 9 -42 -12 -12 -20 -13 -35 -6 -20 11 -23 19 -13 44 7 19 6 19 39 4z"/>
</g>
</svg>
